<svg width="234" height="96" viewBox="0 0 234 96" fill="none" xmlns="http://www.w3.org/2000/svg">
<g filter="url(#filter0_d_7_41)">
<path d="M19.225 18C15.6227 18 12.7 20.9227 12.7 24.525V31.05H6.175C4.97875 31.05 4 32.0287 4 33.225C4 34.4212 4.97875 35.4 6.175 35.4H12.7H40.975C42.1712 35.4 43.15 36.3787 43.15 37.575C43.15 38.7712 42.1712 39.75 40.975 39.75H12.7H10.525C9.32875 39.75 8.35 40.7287 8.35 41.925C8.35 43.1212 9.32875 44.1 10.525 44.1H12.7H36.625C37.8213 44.1 38.8 45.0787 38.8 46.275C38.8 47.4712 37.8213 48.45 36.625 48.45H12.7H6.175C4.97875 48.45 4 49.4287 4 50.625C4 51.8212 4.97875 52.8 6.175 52.8H12.7H32.275C33.4712 52.8 34.45 53.7787 34.45 54.975C34.45 56.1712 33.4712 57.15 32.275 57.15H12.7V74.5499C12.7 81.7546 18.5453 87.5999 25.75 87.5999C32.9547 87.5999 38.8 81.7546 38.8 74.5499H56.2C56.2 81.7546 62.0453 87.5999 69.25 87.5999C76.4547 87.5999 82.3 81.7546 82.3 74.5499H86.65C89.0561 74.5499 91 72.606 91 70.1999C91 67.7939 89.0561 65.85 86.65 65.85V57.15V52.8V50.2579C86.65 47.947 85.7392 45.7312 84.108 44.1L73.6 33.592C71.9688 31.9608 69.753 31.05 67.442 31.05H60.55V24.525C60.55 20.9227 57.6273 18 54.025 18H19.225ZM77.95 50.2579V52.8H60.55V39.75H67.442L77.95 50.2579ZM25.75 68.0249C27.4805 68.0249 29.1402 68.7124 30.3639 69.9361C31.5875 71.1597 32.275 72.8194 32.275 74.5499C32.275 76.2805 31.5875 77.9401 30.3639 79.1638C29.1402 80.3875 27.4805 81.0749 25.75 81.0749C24.0195 81.0749 22.3598 80.3875 21.1361 79.1638C19.9125 77.9401 19.225 76.2805 19.225 74.5499C19.225 72.8194 19.9125 71.1597 21.1361 69.9361C22.3598 68.7124 24.0195 68.0249 25.75 68.0249ZM62.725 74.5499C62.725 72.8194 63.4125 71.1597 64.6361 69.9361C65.8598 68.7124 67.5195 68.0249 69.25 68.0249C70.9805 68.0249 72.6402 68.7124 73.8639 69.9361C75.0875 71.1597 75.775 72.8194 75.775 74.5499C75.775 76.2805 75.0875 77.9401 73.8639 79.1638C72.6402 80.3875 70.9805 81.0749 69.25 81.0749C67.5195 81.0749 65.8598 80.3875 64.6361 79.1638C63.4125 77.9401 62.725 76.2805 62.725 74.5499Z" fill="#4454E3"/>
</g>
<g filter="url(#filter1_d_7_41)">
<path d="M106.705 44H98.605V23.975H91.36V18.35H113.95V23.975H106.705V44ZM128.961 22.85C129.351 22.85 129.756 22.895 130.176 22.985C130.626 23.075 130.956 23.18 131.166 23.3C131.166 23.96 131.091 25.055 130.941 26.585C130.791 28.085 130.656 29.15 130.536 29.78C130.236 29.75 129.681 29.735 128.871 29.735C126.981 29.735 125.301 29.84 123.831 30.05V44H116.136V23.3H122.571L123.471 26.63H123.516C124.386 25.49 125.316 24.575 126.306 23.885C127.296 23.195 128.181 22.85 128.961 22.85ZM153.887 23.3V44H147.632L146.777 40.535C144.617 43.145 142.037 44.45 139.037 44.45C137.957 44.45 136.937 44.3 135.977 44C135.047 43.7 134.342 43.265 133.862 42.695C133.592 42.365 133.382 41.54 133.232 40.22C133.112 38.9 133.052 36.89 133.052 34.19V23.3H140.747V34.1C140.747 34.7 140.762 35.405 140.792 36.215C140.822 37.025 140.912 37.535 141.062 37.745C141.272 38.045 141.872 38.195 142.862 38.195L143.582 38.15C144.422 38.12 145.292 37.925 146.192 37.565V23.3H153.887ZM174.991 43.37C172.561 44.18 169.846 44.585 166.846 44.585C163.486 44.585 160.966 43.745 159.286 42.065C157.636 40.355 156.811 37.7 156.811 34.1C156.811 32.33 157.051 30.59 157.531 28.88C158.011 27.14 158.521 25.97 159.061 25.37C159.691 24.68 160.921 24.095 162.751 23.615C164.611 23.135 166.531 22.895 168.511 22.895C170.581 22.895 172.666 23.075 174.766 23.435C174.706 24.185 174.601 25.07 174.451 26.09C174.331 27.08 174.196 27.965 174.046 28.745C172.186 28.625 170.431 28.565 168.781 28.565C167.161 28.565 166.126 28.655 165.676 28.835C165.436 28.925 165.211 29.54 165.001 30.68C164.821 31.82 164.731 32.885 164.731 33.875C164.731 35.195 164.911 36.215 165.271 36.935C165.661 37.625 166.261 38.105 167.071 38.375C167.881 38.645 168.976 38.78 170.356 38.78C170.956 38.78 172.276 38.72 174.316 38.6L174.991 43.37ZM199.577 44H191.207L186.932 35.585C186.512 34.715 185.957 34.16 185.267 33.92V44H177.572V17L185.267 16.685V32.03C185.987 31.73 186.602 31.115 187.112 30.185L190.937 23.3L199.352 23.255L194.987 30.275C194.297 31.385 193.547 32.27 192.737 32.93C193.427 33.68 194.207 34.82 195.077 36.35L199.577 44Z" fill="#4454E3"/>
</g>
<g filter="url(#filter2_d_7_41)">
<path d="M100.16 53.35H108.26V73.06H118.745V79H100.16V53.35ZM131.236 79.585C127.636 79.585 124.936 78.745 123.136 77.065C121.366 75.355 120.481 72.67 120.481 69.01C120.481 67 120.661 65.245 121.021 63.745C121.411 62.215 121.876 61.15 122.416 60.55C123.106 59.77 124.366 59.125 126.196 58.615C128.056 58.105 129.796 57.85 131.416 57.85C135.286 57.85 138.046 58.675 139.696 60.325C141.346 61.975 142.171 64.615 142.171 68.245C142.171 72.145 141.286 75.01 139.516 76.84C137.746 78.67 134.986 79.585 131.236 79.585ZM131.371 74.32C132.541 74.32 133.306 73.915 133.666 73.105C134.026 72.265 134.206 70.795 134.206 68.695C134.206 67.225 134.131 66.1 133.981 65.32C133.831 64.51 133.546 63.925 133.126 63.565C132.736 63.175 132.121 62.98 131.281 62.98C130.081 62.98 129.391 63.085 129.211 63.295C128.971 63.505 128.776 64.165 128.626 65.275C128.476 66.385 128.401 67.54 128.401 68.74C128.401 70.78 128.596 72.22 128.986 73.06C129.406 73.9 130.201 74.32 131.371 74.32ZM157.439 79L156.719 76.165C155.339 78.415 153.419 79.54 150.959 79.54C148.949 79.54 147.299 78.985 146.009 77.875C144.749 76.735 144.119 75.145 144.119 73.105C144.119 71.845 144.479 70.75 145.199 69.82C145.949 68.86 146.969 68.185 148.259 67.795C149.939 67.315 152.534 67.045 156.044 66.985C156.044 65.005 155.954 63.955 155.774 63.835C155.624 63.715 155.144 63.655 154.334 63.655C153.824 63.655 153.119 63.685 152.219 63.745C150.779 63.805 148.829 63.97 146.369 64.24C146.129 62.62 145.949 60.88 145.829 59.02C147.419 58.69 149.084 58.42 150.824 58.21C152.564 57.97 154.124 57.85 155.504 57.85C157.904 57.85 159.704 58.255 160.904 59.065C162.104 59.845 162.884 60.88 163.244 62.17C163.604 63.46 163.769 65.095 163.739 67.075L163.694 73.69L163.829 79H157.439ZM153.569 74.5C154.349 74.5 155.174 74.35 156.044 74.05V70.72H155.684C153.464 70.72 152.234 70.84 151.994 71.08C151.844 71.23 151.724 71.455 151.634 71.755C151.574 72.055 151.544 72.34 151.544 72.61C151.544 73.33 151.709 73.825 152.039 74.095C152.369 74.365 152.879 74.5 153.569 74.5ZM187.823 51.685V79H181.478L180.848 75.535C180.248 76.705 179.363 77.635 178.193 78.325C177.023 79.015 175.703 79.36 174.233 79.36C171.893 79.36 170.018 78.52 168.608 76.84C167.228 75.16 166.538 72.64 166.538 69.28C166.538 66.73 166.838 64.63 167.438 62.98C168.038 61.33 168.743 60.145 169.553 59.425C170.063 58.975 171.098 58.6 172.658 58.3C174.248 58 175.658 57.85 176.888 57.85C177.968 57.85 179.078 57.955 180.218 58.165C180.128 56.725 180.083 55.93 180.083 55.78V52L187.823 51.685ZM177.608 73.33C178.418 73.33 179.258 73.195 180.128 72.925V63.16C179.258 63.04 178.298 62.98 177.248 62.98C176.348 62.98 175.778 63.055 175.538 63.205C175.208 63.445 174.938 64.135 174.728 65.275C174.548 66.385 174.458 67.555 174.458 68.785C174.458 70.615 174.728 71.83 175.268 72.43C175.838 73.03 176.618 73.33 177.608 73.33Z" fill="#4454E3"/>
</g>
<defs>
<filter id="filter0_d_7_41" x="0" y="18" width="95" height="77.5999" filterUnits="userSpaceOnUse" color-interpolation-filters="sRGB">
<feFlood flood-opacity="0" result="BackgroundImageFix"/>
<feColorMatrix in="SourceAlpha" type="matrix" values="0 0 0 0 0 0 0 0 0 0 0 0 0 0 0 0 0 0 127 0" result="hardAlpha"/>
<feOffset dy="4"/>
<feGaussianBlur stdDeviation="2"/>
<feComposite in2="hardAlpha" operator="out"/>
<feColorMatrix type="matrix" values="0 0 0 0 0 0 0 0 0 0 0 0 0 0 0 0 0 0 0.25 0"/>
<feBlend mode="normal" in2="BackgroundImageFix" result="effect1_dropShadow_7_41"/>
<feBlend mode="normal" in="SourceGraphic" in2="effect1_dropShadow_7_41" result="shape"/>
</filter>
<filter id="filter1_d_7_41" x="87.36" y="16.685" width="116.217" height="35.9" filterUnits="userSpaceOnUse" color-interpolation-filters="sRGB">
<feFlood flood-opacity="0" result="BackgroundImageFix"/>
<feColorMatrix in="SourceAlpha" type="matrix" values="0 0 0 0 0 0 0 0 0 0 0 0 0 0 0 0 0 0 127 0" result="hardAlpha"/>
<feOffset dy="4"/>
<feGaussianBlur stdDeviation="2"/>
<feComposite in2="hardAlpha" operator="out"/>
<feColorMatrix type="matrix" values="0 0 0 0 0 0 0 0 0 0 0 0 0 0 0 0 0 0 0.25 0"/>
<feBlend mode="normal" in2="BackgroundImageFix" result="effect1_dropShadow_7_41"/>
<feBlend mode="normal" in="SourceGraphic" in2="effect1_dropShadow_7_41" result="shape"/>
</filter>
<filter id="filter2_d_7_41" x="96.16" y="51.685" width="95.6632" height="35.9" filterUnits="userSpaceOnUse" color-interpolation-filters="sRGB">
<feFlood flood-opacity="0" result="BackgroundImageFix"/>
<feColorMatrix in="SourceAlpha" type="matrix" values="0 0 0 0 0 0 0 0 0 0 0 0 0 0 0 0 0 0 127 0" result="hardAlpha"/>
<feOffset dy="4"/>
<feGaussianBlur stdDeviation="2"/>
<feComposite in2="hardAlpha" operator="out"/>
<feColorMatrix type="matrix" values="0 0 0 0 0 0 0 0 0 0 0 0 0 0 0 0 0 0 0.25 0"/>
<feBlend mode="normal" in2="BackgroundImageFix" result="effect1_dropShadow_7_41"/>
<feBlend mode="normal" in="SourceGraphic" in2="effect1_dropShadow_7_41" result="shape"/>
</filter>
</defs>
</svg>
